<mxfile host="app.diagrams.net" modified="2022-07-26T09:57:06.173Z" agent="5.0 (Windows NT 10.0; Win64; x64) AppleWebKit/537.36 (KHTML, like Gecko) Chrome/103.0.5060.134 Safari/537.36 Edg/103.0.1264.71" etag="RiB0cgwM_bD15oMSoGmy" version="20.2.0" type="github">
  <diagram id="b-OBa6_lK4KeCsZuDDP8" name="Page-1">
    <mxGraphModel dx="677" dy="359" grid="1" gridSize="10" guides="1" tooltips="1" connect="1" arrows="1" fold="1" page="1" pageScale="1" pageWidth="850" pageHeight="1100" math="0" shadow="0">
      <root>
        <mxCell id="0" />
        <mxCell id="1" parent="0" />
        <mxCell id="tO50g9iQ6tJXLqnUahDX-7" value="" style="ellipse;whiteSpace=wrap;html=1;fillColor=none;dashed=1;perimeterSpacing=0;sketch=0;" parent="1" vertex="1">
          <mxGeometry x="115" y="356" width="505" height="84" as="geometry" />
        </mxCell>
        <mxCell id="tO50g9iQ6tJXLqnUahDX-1" value="" style="fontColor=#0066CC;verticalAlign=top;verticalLabelPosition=bottom;labelPosition=center;align=center;html=1;fillColor=default;strokeColor=default;gradientColor=none;gradientDirection=north;strokeWidth=2;shape=mxgraph.networks.radio_tower;rounded=1;shadow=0;comic=0;labelBackgroundColor=none;perimeterSpacing=0;" parent="1" vertex="1">
          <mxGeometry x="80" y="290" width="66" height="120" as="geometry" />
        </mxCell>
        <mxCell id="tO50g9iQ6tJXLqnUahDX-5" value="" style="ellipse;whiteSpace=wrap;html=1;fillColor=none;dashed=1;" parent="1" vertex="1">
          <mxGeometry x="115" y="368" width="245" height="60" as="geometry" />
        </mxCell>
        <mxCell id="tO50g9iQ6tJXLqnUahDX-8" value="" style="endArrow=none;dashed=1;html=1;strokeWidth=1;rounded=0;entryX=0.5;entryY=0.15;entryDx=0;entryDy=0;entryPerimeter=0;exitX=0;exitY=0.5;exitDx=0;exitDy=0;strokeColor=#808080;" parent="1" source="tO50g9iQ6tJXLqnUahDX-7" target="tO50g9iQ6tJXLqnUahDX-1" edge="1">
          <mxGeometry width="50" height="50" relative="1" as="geometry">
            <mxPoint x="100" y="380" as="sourcePoint" />
            <mxPoint x="150" y="330" as="targetPoint" />
          </mxGeometry>
        </mxCell>
        <mxCell id="tO50g9iQ6tJXLqnUahDX-9" value="&lt;span style=&quot;font-size: 13px;&quot;&gt;&lt;b&gt;&lt;i&gt;u&lt;sub&gt;n&lt;/sub&gt;&lt;/i&gt;&lt;/b&gt;&lt;/span&gt;" style="text;html=1;strokeColor=none;fillColor=none;align=center;verticalAlign=middle;whiteSpace=wrap;rounded=0;dashed=1;fontFamily=Times New Roman;" parent="1" vertex="1">
          <mxGeometry x="249" y="383.55" width="25" height="12.5" as="geometry" />
        </mxCell>
        <mxCell id="tO50g9iQ6tJXLqnUahDX-10" value="&lt;span style=&quot;font-size: 13px;&quot;&gt;&lt;b&gt;&lt;i&gt;u&lt;sub&gt;f&lt;/sub&gt;&lt;/i&gt;&lt;/b&gt;&lt;/span&gt;" style="text;html=1;strokeColor=none;fillColor=none;align=center;verticalAlign=middle;whiteSpace=wrap;rounded=0;dashed=1;fontFamily=Times New Roman;" parent="1" vertex="1">
          <mxGeometry x="435" y="408" width="30" height="30" as="geometry" />
        </mxCell>
        <mxCell id="tO50g9iQ6tJXLqnUahDX-19" value="" style="endArrow=none;html=1;rounded=0;fontSize=13;fontColor=#636363;strokeColor=#050505;strokeWidth=1;" parent="1" edge="1">
          <mxGeometry width="50" height="50" relative="1" as="geometry">
            <mxPoint x="120" y="510" as="sourcePoint" />
            <mxPoint x="620" y="510" as="targetPoint" />
          </mxGeometry>
        </mxCell>
        <mxCell id="tO50g9iQ6tJXLqnUahDX-20" value="&lt;span style=&quot;font-size: 11px;&quot;&gt;&lt;span style=&quot;font-size: 11px; font-weight: normal;&quot;&gt;&lt;font face=&quot;Times New Roman&quot; style=&quot;font-size: 11px;&quot;&gt;Base Station&lt;/font&gt;&lt;/span&gt;&lt;/span&gt;" style="text;html=1;strokeColor=none;fillColor=none;align=center;verticalAlign=middle;whiteSpace=wrap;rounded=0;dashed=1;fontStyle=1;fontSize=11;" parent="1" vertex="1">
          <mxGeometry x="76" y="260" width="77" height="30" as="geometry" />
        </mxCell>
        <mxCell id="tO50g9iQ6tJXLqnUahDX-24" value="" style="endArrow=none;html=1;rounded=0;fontSize=13;fontColor=#636363;strokeColor=#050505;strokeWidth=1;" parent="1" edge="1">
          <mxGeometry width="50" height="50" relative="1" as="geometry">
            <mxPoint x="120" y="520" as="sourcePoint" />
            <mxPoint x="120" y="500" as="targetPoint" />
          </mxGeometry>
        </mxCell>
        <mxCell id="tO50g9iQ6tJXLqnUahDX-25" value="" style="endArrow=none;html=1;rounded=0;fontSize=13;fontColor=#636363;strokeColor=#050505;strokeWidth=1;" parent="1" edge="1">
          <mxGeometry width="50" height="50" relative="1" as="geometry">
            <mxPoint x="620" y="520" as="sourcePoint" />
            <mxPoint x="620" y="500" as="targetPoint" />
          </mxGeometry>
        </mxCell>
        <mxCell id="tO50g9iQ6tJXLqnUahDX-26" value="&lt;span style=&quot;font-size: 13px;&quot;&gt;&lt;b&gt;D&lt;sub&gt;N&lt;/sub&gt;&lt;/b&gt;&lt;/span&gt;" style="text;html=1;strokeColor=none;fillColor=none;align=center;verticalAlign=middle;whiteSpace=wrap;rounded=0;dashed=1;fontFamily=Times New Roman;" parent="1" vertex="1">
          <mxGeometry x="225" y="450" width="25" height="30" as="geometry" />
        </mxCell>
        <mxCell id="tO50g9iQ6tJXLqnUahDX-27" value="&lt;span style=&quot;font-size: 13px;&quot;&gt;&lt;b&gt;D&lt;sub&gt;F&lt;/sub&gt;&lt;/b&gt;&lt;/span&gt;" style="text;html=1;strokeColor=none;fillColor=none;align=center;verticalAlign=middle;whiteSpace=wrap;rounded=0;dashed=1;fontFamily=Times New Roman;" parent="1" vertex="1">
          <mxGeometry x="370" y="511" width="20" height="30" as="geometry" />
        </mxCell>
        <mxCell id="tO50g9iQ6tJXLqnUahDX-29" value="" style="group" parent="1" vertex="1" connectable="0">
          <mxGeometry x="120" y="470" width="240" height="20" as="geometry" />
        </mxCell>
        <mxCell id="tO50g9iQ6tJXLqnUahDX-18" value="" style="endArrow=none;html=1;rounded=0;fontSize=13;fontColor=#636363;strokeColor=#050505;strokeWidth=1;" parent="tO50g9iQ6tJXLqnUahDX-29" edge="1">
          <mxGeometry width="50" height="50" relative="1" as="geometry">
            <mxPoint y="10" as="sourcePoint" />
            <mxPoint x="240" y="10" as="targetPoint" />
          </mxGeometry>
        </mxCell>
        <mxCell id="tO50g9iQ6tJXLqnUahDX-21" value="" style="endArrow=none;html=1;rounded=0;fontSize=13;fontColor=#636363;strokeColor=#050505;strokeWidth=1;" parent="tO50g9iQ6tJXLqnUahDX-29" edge="1">
          <mxGeometry width="50" height="50" relative="1" as="geometry">
            <mxPoint y="20" as="sourcePoint" />
            <mxPoint as="targetPoint" />
          </mxGeometry>
        </mxCell>
        <mxCell id="tO50g9iQ6tJXLqnUahDX-23" value="" style="endArrow=none;html=1;rounded=0;fontSize=13;fontColor=#636363;strokeColor=#050505;strokeWidth=1;" parent="tO50g9iQ6tJXLqnUahDX-29" edge="1">
          <mxGeometry width="50" height="50" relative="1" as="geometry">
            <mxPoint x="240" y="20" as="sourcePoint" />
            <mxPoint x="240" as="targetPoint" />
          </mxGeometry>
        </mxCell>
        <mxCell id="tO50g9iQ6tJXLqnUahDX-35" value="" style="ellipse;whiteSpace=wrap;html=1;aspect=fixed;fillColor=#191919;" parent="1" vertex="1">
          <mxGeometry x="113" y="395.5" width="3" height="3" as="geometry" />
        </mxCell>
        <mxCell id="H49S0tHLaL2Qj8qxD6Iv-1" value="" style="endArrow=classicThin;html=1;rounded=0;strokeColor=#000000;exitX=0.503;exitY=0.184;exitDx=0;exitDy=0;exitPerimeter=0;strokeWidth=1.5;startArrow=classicThin;startFill=1;endFill=1;endSize=2;startSize=2;" parent="1" source="tO50g9iQ6tJXLqnUahDX-1" edge="1">
          <mxGeometry width="50" height="50" relative="1" as="geometry">
            <mxPoint x="113" y="310" as="sourcePoint" />
            <mxPoint x="235.70851842555425" y="385.4342280116364" as="targetPoint" />
          </mxGeometry>
        </mxCell>
        <mxCell id="H49S0tHLaL2Qj8qxD6Iv-2" value="" style="endArrow=classicThin;html=1;rounded=0;exitX=0.507;exitY=0.185;exitDx=0;exitDy=0;exitPerimeter=0;strokeColor=#000000;strokeWidth=1.5;startArrow=classicThin;startFill=1;endFill=1;endSize=2;startSize=2;" parent="1" source="tO50g9iQ6tJXLqnUahDX-1" edge="1">
          <mxGeometry width="50" height="50" relative="1" as="geometry">
            <mxPoint x="123" y="318" as="sourcePoint" />
            <mxPoint x="425.28093188213666" y="421.3476089751433" as="targetPoint" />
          </mxGeometry>
        </mxCell>
        <mxCell id="tUv6s2DaMZKzackl_oVq-1" value="&lt;span style=&quot;font-size: 13px;&quot;&gt;&lt;i&gt;h&lt;sub&gt;f&lt;/sub&gt;&lt;/i&gt;&lt;/span&gt;" style="text;html=1;strokeColor=none;fillColor=none;align=center;verticalAlign=middle;whiteSpace=wrap;rounded=0;dashed=1;fontFamily=Times New Roman;" parent="1" vertex="1">
          <mxGeometry x="185" y="320" width="60" height="30" as="geometry" />
        </mxCell>
        <mxCell id="tUv6s2DaMZKzackl_oVq-2" value="&lt;span style=&quot;font-size: 13px;&quot;&gt;&lt;i&gt;h&lt;sub&gt;n&lt;/sub&gt;&lt;/i&gt;&lt;/span&gt;" style="text;html=1;strokeColor=none;fillColor=none;align=center;verticalAlign=middle;whiteSpace=wrap;rounded=0;dashed=1;fontFamily=Times New Roman;" parent="1" vertex="1">
          <mxGeometry x="149" y="335" width="24" height="30" as="geometry" />
        </mxCell>
        <mxCell id="nDdLiPCy8IWlbIIjnGRO-3" value="" style="endArrow=open;html=1;rounded=0;exitX=0;exitY=0.5;exitDx=0;exitDy=0;strokeWidth=0.3;startArrow=open;startFill=0;endFill=0;endSize=3;startSize=3;" edge="1" parent="1" source="tO50g9iQ6tJXLqnUahDX-5">
          <mxGeometry width="50" height="50" relative="1" as="geometry">
            <mxPoint x="170" y="440" as="sourcePoint" />
            <mxPoint x="235.0159724812637" y="388.39933656544565" as="targetPoint" />
          </mxGeometry>
        </mxCell>
        <mxCell id="nDdLiPCy8IWlbIIjnGRO-4" value="" style="endArrow=open;html=1;rounded=0;exitX=0;exitY=0.5;exitDx=0;exitDy=0;entryX=0.024;entryY=0.625;entryDx=0;entryDy=0;entryPerimeter=0;strokeWidth=0.3;startArrow=none;startFill=0;endFill=0;endSize=3;startSize=3;" edge="1" parent="1" source="tO50g9iQ6tJXLqnUahDX-5" target="nDdLiPCy8IWlbIIjnGRO-10">
          <mxGeometry width="50" height="50" relative="1" as="geometry">
            <mxPoint x="125" y="408" as="sourcePoint" />
            <mxPoint x="245.01597444089725" y="398.399361022364" as="targetPoint" />
          </mxGeometry>
        </mxCell>
        <mxCell id="nDdLiPCy8IWlbIIjnGRO-5" value="&lt;span style=&quot;font-size: 13px;&quot;&gt;&lt;i style=&quot;&quot;&gt;d&lt;sub style=&quot;&quot;&gt;n&lt;/sub&gt;&lt;/i&gt;&lt;/span&gt;" style="text;html=1;strokeColor=none;fillColor=none;align=center;verticalAlign=middle;whiteSpace=wrap;rounded=0;dashed=1;fontFamily=Times New Roman;" vertex="1" parent="1">
          <mxGeometry x="160" y="368.5" width="25" height="30" as="geometry" />
        </mxCell>
        <mxCell id="nDdLiPCy8IWlbIIjnGRO-7" value="&lt;span style=&quot;font-size: 13px;&quot;&gt;&lt;i style=&quot;&quot;&gt;d&lt;sub style=&quot;&quot;&gt;f&lt;/sub&gt;&lt;/i&gt;&lt;/span&gt;" style="text;html=1;strokeColor=none;fillColor=none;align=center;verticalAlign=middle;whiteSpace=wrap;rounded=0;dashed=1;fontFamily=Times New Roman;" vertex="1" parent="1">
          <mxGeometry x="235" y="403.4" width="25" height="30" as="geometry" />
        </mxCell>
        <mxCell id="nDdLiPCy8IWlbIIjnGRO-9" value="" style="verticalLabelPosition=bottom;verticalAlign=top;html=1;shadow=0;dashed=0;strokeWidth=0.1;shape=mxgraph.android.phone2;strokeColor=none;fillColor=#000000;" vertex="1" parent="1">
          <mxGeometry x="235" y="375.1" width="12" height="23.4" as="geometry" />
        </mxCell>
        <mxCell id="nDdLiPCy8IWlbIIjnGRO-10" value="" style="verticalLabelPosition=bottom;verticalAlign=top;html=1;shadow=0;dashed=0;strokeWidth=0.1;shape=mxgraph.android.phone2;strokeColor=none;fillColor=#000000;" vertex="1" parent="1">
          <mxGeometry x="425" y="410" width="12" height="23.4" as="geometry" />
        </mxCell>
      </root>
    </mxGraphModel>
  </diagram>
</mxfile>
